<svg id="Imported_from_PDF" data-name="Imported from PDF" xmlns="http://www.w3.org/2000/svg" viewBox="0 0 16.05 15.07"><title>icon-brush</title><path d="M488.41,309.91l-0.75,1,2.43,2,0.72-.92a1.12,1.12,0,0,0-.14-1.53h0l-0.8-.67a1,1,0,0,0-.64-0.24h0a1,1,0,0,0-.82.41m-7.25-.28c-0.63.56,0.8,2.65,2.84,6h0l-2.86,3.69h0l-0.66.85,0.86,0.72,0.73,0.63h0l0.78,0.66,0.61-.79,0.07,0h0l2.27-2.93c1.6,2.18,3.15,3.41,4.3,2.39h0c1.11-1,0-3.09-2-5.35h0l1.38-1.78-2.43-2-1.17,1.5c-2.13-2.09-3.69-3.64-4.45-3.64h0a0.36,0.36,0,0,0-.27.1M490.89,321c-2.29,1.81.82,4.09,2.5,3.47h0c1.16-.43,2.13-2.38,1.41-2h0a0.9,0.9,0,0,1-1.42-.41h0a2.26,2.26,0,0,0-1.7-1.32h0a1.63,1.63,0,0,0-.79.23M479,324.55l3.21-1.57-2.38-2Z" transform="translate(-479 -309.5)"/></svg>