<svg id="Imported_from_PDF" data-name="Imported from PDF" xmlns="http://www.w3.org/2000/svg" viewBox="0 0 14 15.03"><title>icon-article</title><path d="M408,273.53v15h1.13a1.36,1.36,0,0,1-.11-0.53h0a1.49,1.49,0,0,1,1.49-1.49h0A1.49,1.49,0,0,1,412,288h0a1.36,1.36,0,0,1-.11.53h1.73a1.36,1.36,0,0,1-.11-0.53h0a1.49,1.49,0,0,1,1.49-1.49h0a1.49,1.49,0,0,1,1.49,1.49h0a1.56,1.56,0,0,1-.1.53h1.72A1.36,1.36,0,0,1,418,288h0a1.49,1.49,0,0,1,1.49-1.49h0A1.49,1.49,0,0,1,421,288h0a1.56,1.56,0,0,1-.1.53H422v-15H408Zm7,2h5v1h-5v-1Zm-5,0h4v3h-4v-3Zm5,2h5v1h-5v-1Zm-5,2h10v1H410v-1Zm0,2h10v1H410v-1Zm0,2h10v1H410v-1Zm1-6h2v-1h-2v1Z" transform="translate(-408.04 -273.53)"/></svg>