<svg id="Imported_from_PDF" data-name="Imported from PDF" xmlns="http://www.w3.org/2000/svg" viewBox="0 0 14.82 15.01"><title>icon-poetry</title><path d="M564.44,273.93l-0.75,1,2.23,1.54,0.73-1a0.88,0.88,0,0,0-.2-1.24h0l-0.74-.51a1,1,0,0,0-.53-0.17h0a0.93,0.93,0,0,0-.74.37m-11.36,1.58A1.08,1.08,0,0,0,552,276.6h0v10.88a1.08,1.08,0,0,0,1.08,1.09h10.86a1.09,1.09,0,0,0,1.09-1.09h0V280.4l-1,1.4v5.74H553v-11h7.38l0.76-1h-8.09Zm6.24,5.37-1.25,1.69,1.32,0.92,0.16,0.11,0.72,0.51,0.5-.66,0.05,0h0l4.62-6.27-2.22-1.54ZM557,286.21l2.72-1.41-2.19-1.54Z" transform="translate(-552 -273.56)"/></svg>